<svg width="65" height="65" viewBox="0 0 65 65" fill="none" xmlns="http://www.w3.org/2000/svg">
<g clip-path="url(#clip0)">
<path d="M63.979 40.4095C59.6384 57.8204 42.004 68.4163 24.5911 64.0746C7.18541 59.734 -3.41051 42.0985 0.932006 24.689C5.27071 7.27623 22.9051 -3.32049 40.3127 1.02012C57.7243 5.36073 68.3196 22.9981 63.9785 40.4098L63.9789 40.4095H63.979Z" fill="#F7931A"/>
<path d="M46.8312 27.8697C47.4781 23.5446 44.1853 21.2197 39.6827 19.6688L41.1433 13.8102L37.577 12.9215L36.1551 18.6259C35.2175 18.3921 34.2547 18.1718 33.2977 17.9533L34.73 12.2113L31.1659 11.3226L29.7044 17.1794C28.9285 17.0027 28.1665 16.8281 27.4272 16.6442L27.4313 16.6258L22.5132 15.3976L21.5645 19.2067C21.5645 19.2067 24.2105 19.8132 24.1547 19.8506C25.5989 20.211 25.86 21.167 25.8167 21.9248L24.1528 28.5991C24.2522 28.6244 24.3812 28.6609 24.5236 28.7181C24.4046 28.6886 24.278 28.6563 24.1466 28.6249L21.8144 37.9747C21.6379 38.4135 21.19 39.0719 20.1803 38.8219C20.216 38.8737 17.5882 38.175 17.5882 38.175L15.8176 42.2573L20.4586 43.4143C21.322 43.6308 22.168 43.8573 23.0012 44.0704L21.5255 49.9962L25.0877 50.8849L26.5492 45.0219C27.5223 45.2861 28.4667 45.5298 29.3913 45.7595L27.9347 51.5948L31.5012 52.4834L32.9768 46.5687C39.0582 47.7196 43.6309 47.2556 45.5556 41.755C47.1065 37.3264 45.4784 34.772 42.279 33.1062C44.6093 32.5688 46.3645 31.0362 46.8325 27.8701L46.8314 27.8693L46.8312 27.8697ZM38.683 39.2956C37.5808 43.7242 30.1244 41.3302 27.7069 40.7299L29.6653 32.8792C32.0826 33.4827 39.8348 34.677 38.6831 39.2956H38.683ZM39.7859 27.8055C38.7805 31.8338 32.5744 29.7872 30.5612 29.2854L32.3368 22.1653C34.35 22.6671 40.8333 23.6037 39.7862 27.8055H39.7859Z" fill="white"/>
</g>
<defs>
<clipPath id="clip0">
<rect width="65" height="65" fill="white"/>
</clipPath>
</defs>
</svg>
