<svg width="65" height="65" viewBox="0 0 65 65" fill="none" xmlns="http://www.w3.org/2000/svg">
<path d="M19.8764 27.3135L32.4999 14.69L45.1293 27.319L52.4743 19.974L32.4999 0L12.5319 19.968L19.8767 27.313L19.8764 27.3135ZM0 32.5L7.34523 25.1537L14.6899 32.4984L7.34471 39.8437L0 32.5ZM19.8764 37.6873L32.4999 50.31L45.1291 37.6813L52.4779 45.0224L52.4743 45.0263L32.4999 65L12.5319 45.032L12.5216 45.0216L19.8772 37.6865L19.8764 37.6873ZM50.3098 32.5031L57.655 25.1579L64.9997 32.5026L57.6548 39.8479L50.3098 32.5031Z" fill="#F3BA2F"/>
<path d="M39.9494 32.4962H39.9525L32.4999 25.0428L26.9913 30.55L26.3584 31.1831L25.0532 32.4886L25.0428 32.4988L25.0532 32.5094L32.4999 39.9573L39.953 32.504L39.9566 32.4998L39.9499 32.4962" fill="#F3BA2F"/>
</svg>
