<svg width="66" height="66" viewBox="0 0 66 66" fill="none" xmlns="http://www.w3.org/2000/svg">
<path d="M33.0986 0.357547V0.390059C33.1311 0.552621 33.1311 0.747695 33.1311 0.942769V24.3842C33.0986 24.5142 33.0011 24.5467 32.9035 24.6117C32.2208 24.9369 31.5705 25.2295 30.8878 25.5221C29.9449 25.9447 28.9695 26.3999 28.0267 26.8226L24.6129 28.3832C23.67 28.8058 22.7272 29.2285 21.8168 29.6511C20.7114 30.1713 19.5735 30.659 18.4681 31.1792C17.5252 31.6019 16.5824 32.0571 15.607 32.4797C14.8267 32.8374 14.0464 33.1625 13.2986 33.5201C13.2336 33.5526 13.1686 33.5851 13.1035 33.5851C13.071 33.5851 13.071 33.5851 13.0385 33.5526L13.9163 32.0896C15.607 29.2935 17.2651 26.53 18.9558 23.7339C20.7439 20.7428 22.5646 17.7516 24.3528 14.7605C26.0109 11.997 27.7016 9.23341 29.3597 6.46986C30.5627 4.4541 31.7981 2.43834 33.0011 0.422571C33.0336 0.357547 33.0661 0.325034 33.0661 0.26001H33.0986C33.0661 0.292522 33.0986 0.325034 33.0986 0.357547Z" fill="#8A92B2"/>
<path d="M53.0599 33.5526L53.0925 33.5852L48.3131 36.4137L33.2924 45.2896C33.2274 45.3221 33.1624 45.3546 33.1299 45.3871C33.0323 45.3871 33.0323 45.2896 33.0323 45.2571V44.9645V24.8719C33.0323 24.7743 33.0323 24.6443 33.0649 24.5467C33.0974 24.4167 33.1949 24.4492 33.2924 24.4817C33.7151 24.6768 34.1703 24.8719 34.5929 25.0669C35.8609 25.6522 37.1289 26.2374 38.3969 26.7901C39.5023 27.2778 40.5752 27.798 41.6806 28.2857C42.786 28.7733 43.8915 29.2935 44.9969 29.7812C45.9397 30.2039 46.9151 30.6591 47.858 31.0817C48.8008 31.5044 49.7762 31.9595 50.7191 32.3822C51.4668 32.7073 52.2146 33.065 52.9624 33.3901C52.9624 33.4876 52.9949 33.5201 53.0599 33.5526Z" fill="#454A75"/>
<path d="M33.0973 65.5773C33.0973 65.6098 33.0648 65.6423 33.0648 65.6748H33.0323C33.0323 65.6098 32.9673 65.5773 32.9348 65.5122C30.919 62.6837 28.9032 59.8226 26.8875 56.994C24.8392 54.1004 22.7584 51.1743 20.7101 48.2807C18.7269 45.4846 16.7111 42.6561 14.7279 39.86C14.2077 39.1122 13.6875 38.397 13.1673 37.6492C13.1348 37.5842 13.1023 37.5516 13.0372 37.4541C13.1348 37.4541 13.1998 37.5191 13.2323 37.5516C16.0609 39.2098 18.8569 40.8679 21.6855 42.526C24.9367 44.4442 28.1555 46.3625 31.4067 48.2807L33.0648 49.2561C33.1298 49.3211 33.1298 49.3861 33.1298 49.4511V65.1221C33.1298 65.2847 33.1298 65.4472 33.0973 65.5773Z" fill="#8A92B2"/>
<path d="M13.0049 33.6177V33.5852C14.0453 33.13 15.0532 32.6423 16.0936 32.1872C17.4266 31.5694 18.7596 30.9842 20.0926 30.3665C21.1004 29.9113 22.1408 29.4236 23.1487 28.9684C24.6443 28.2857 26.1073 27.6354 27.6029 26.9527C28.6108 26.4975 29.6187 26.0423 30.6591 25.5546C31.3743 25.2295 32.1221 24.9044 32.8374 24.5793C32.9024 24.5468 33 24.5142 33.0325 24.4492C33.065 24.4492 33.065 24.4817 33.0325 24.5142V45.1596C33.0325 45.2571 33 45.3546 33.065 45.4197C33 45.5172 32.9349 45.4197 32.9024 45.3871C32.6098 45.2246 32.3172 45.062 32.0246 44.867C25.7497 41.1605 19.4423 37.4216 13.1674 33.7152C13.1349 33.6827 13.0699 33.6502 13.0049 33.6177Z" fill="#62688F"/>
<path d="M52.9949 37.4541H53.0274C53.0274 37.5191 52.9624 37.5842 52.9298 37.6492C46.9476 46.0699 40.9653 54.5231 34.983 62.9438C34.3653 63.8216 33.7151 64.6994 33.0973 65.5773C33.0648 65.5447 33.0648 65.5122 33.0648 65.4797V65.2847V49.5162V49.2236C34.4303 48.4108 35.7633 47.6305 37.1289 46.8176C42.3959 43.6965 47.6629 40.6078 52.8973 37.4866C52.9298 37.5191 52.9624 37.4866 52.9949 37.4541Z" fill="#62688F"/>
<path d="M33.065 24.5143V24.4492V24.2542V0.650235C33.065 0.552698 33.0325 0.487674 33.0975 0.390137C39.6975 11.3468 46.2975 22.2709 52.865 33.2276C52.9301 33.3251 53.0276 33.4552 53.0601 33.5852C52.6049 33.4226 52.1823 33.1951 51.7596 33C51.2394 32.7724 50.6867 32.5123 50.1665 32.2847C49.8414 32.1222 49.4837 31.9921 49.1586 31.8295C48.6059 31.5694 48.0532 31.3419 47.5005 31.0818C47.1754 30.9517 46.8502 30.7892 46.5251 30.6266L44.3793 29.6512C44.0217 29.4887 43.664 29.3261 43.2739 29.1635L41.7133 28.4808C41.3882 28.3507 41.0631 28.1882 40.7379 28.0256L38.5921 27.0502C38.2345 26.8877 37.8768 26.7251 37.4867 26.5626L35.9261 25.8798C35.5685 25.7172 35.2433 25.5547 34.8857 25.3921C34.268 25.0995 33.6502 24.8069 33 24.5468C33.0975 24.5143 33.065 24.5143 33.065 24.5143Z" fill="#62688F"/>
</svg>
